<svg xmlns="http://www.w3.org/2000/svg" width="24" height="24" viewBox="0 0 24 24"><path d="M23.991 8.209l-.009-.045a.823.823 0 0 0-.019-.086c-.004-.017-.011-.033-.016-.05l-.026-.075-.023-.05c-.011-.023-.021-.046-.035-.068l-.029-.048-.043-.062-.036-.045a.889.889 0 0 0-.051-.056c-.014-.014-.027-.028-.041-.04-.02-.017-.039-.034-.059-.049l-.047-.036c-.006-.003-.011-.009-.017-.012L12.572.173a1.033 1.033 0 0 0-1.145 0L.459 7.486c-.005.003-.011.009-.017.012l-.046.036a.958.958 0 0 0-.059.049c-.014.012-.027.026-.041.04a.889.889 0 0 0-.051.056l-.036.045a.858.858 0 0 0-.043.062l-.03.048a1.448 1.448 0 0 0-.058.118c-.01.025-.018.05-.026.075l-.016.05c-.008.029-.013.058-.018.087l-.008.045a.854.854 0 0 0-.01.134v7.312c0 .046.003.091.009.136l.008.044c.005.029.011.058.018.086l.016.05.026.076.023.05a.872.872 0 0 0 .035.068l.03.048.043.062a.889.889 0 0 0 .129.141c.019.018.038.033.059.05l.046.035.017.013 10.969 7.312a1.027 1.027 0 0 0 1.144.001l10.969-7.312.017-.013.047-.035.059-.05.041-.04a.889.889 0 0 0 .13-.163c.01-.016.021-.031.029-.048.014-.022.024-.045.035-.068.008-.017.017-.033.023-.05a.758.758 0 0 0 .026-.076c.005-.016.012-.032.016-.05a.823.823 0 0 0 .019-.086c.002-.015.006-.03.009-.044.004-.045.008-.09.008-.136V8.343c0-.045-.004-.09-.009-.134zm-10.96-5.251l8.08 5.386-3.609 2.415-4.471-2.991v-4.81zm-2.062 0v4.81l-4.471 2.991-3.61-2.415 8.081-5.386zm-8.907 7.316L4.643 12l-2.581 1.727v-3.453zm8.907 10.768l-8.081-5.387 3.61-2.414 4.471 2.99v4.811zM12 14.44L8.353 12 12 9.56 15.647 12 12 14.44zm1.031 6.602v-4.811l4.471-2.99 3.609 2.414-8.08 5.387zm8.907-7.316L19.357 12l2.58-1.726v3.452z"/></svg>